<svg width="79" height="79" viewBox="0 0 79 79" fill="none" xmlns="http://www.w3.org/2000/svg">
<g filter="url(#filter0_d_500_489)">
<path d="M4 35.3555L39.3553 0.000130296L74.7107 35.3555L39.3553 70.7108L4 35.3555Z" fill="#FAAD14"/>
</g>
<g filter="url(#filter1_d_500_489)">
<path d="M42.7754 35.3551L42.9194 23.6551L42.7754 10.2271C42.7754 10.2271 43.0514 10.2031 43.6034 10.1551C44.1554 10.1071 44.8754 10.0471 45.7634 9.97514C46.6754 9.90314 47.6474 9.84314 48.6794 9.79514C49.7354 9.74714 50.7554 9.72314 51.7394 9.72314C54.0914 9.72314 55.9154 10.4431 57.2114 11.8831C58.5074 13.3231 59.1554 15.4831 59.1554 18.3631C59.1554 20.1631 58.9154 21.6511 58.4354 22.8271C57.9794 23.9791 57.3554 24.8911 56.5634 25.5631C55.7954 26.2111 54.9314 26.6791 53.9714 26.9671C53.0114 27.2311 52.0154 27.3631 50.9834 27.3631C50.1434 27.3631 49.3274 27.3391 48.5354 27.2911C47.7434 27.2431 47.2274 27.2071 46.9874 27.1831V35.3551H42.7754ZM51.1634 23.9071C52.5074 23.9071 53.3954 23.7031 53.8274 23.2951C54.1634 22.9591 54.4034 22.3591 54.5474 21.4951C54.6914 20.6311 54.7634 19.4791 54.7634 18.0391C54.7634 16.8631 54.7034 15.9751 54.5834 15.3751C54.4634 14.7751 54.3194 14.3551 54.1514 14.1151C54.0074 13.8511 53.8634 13.6591 53.7194 13.5391C53.5274 13.3951 53.1794 13.2751 52.6754 13.1791C52.1954 13.0591 51.6074 12.9991 50.9114 12.9991C50.1434 12.9991 49.3994 13.0351 48.6794 13.1071C47.9834 13.1791 47.4194 13.2511 46.9874 13.3231V23.5471C47.1794 23.5951 47.6714 23.6671 48.4634 23.7631C49.2794 23.8591 50.1794 23.9071 51.1634 23.9071Z" fill="white"/>
</g>
<g filter="url(#filter2_d_500_489)">
<path d="M23.7754 59.3551L23.9194 47.6551L23.7754 34.2271C23.7754 34.2271 24.0514 34.2031 24.6034 34.1551C25.1554 34.1071 25.8754 34.0471 26.7634 33.9751C27.6754 33.9031 28.6474 33.8431 29.6794 33.7951C30.7354 33.7471 31.7554 33.7231 32.7394 33.7231C35.0914 33.7231 36.9154 34.4431 38.2114 35.8831C39.5074 37.3231 40.1554 39.4831 40.1554 42.3631C40.1554 44.1631 39.9154 45.6511 39.4354 46.8271C38.9794 47.9791 38.3554 48.8911 37.5634 49.5631C36.7954 50.2111 35.9314 50.6791 34.9714 50.9671C34.0114 51.2311 33.0154 51.3631 31.9834 51.3631C31.1434 51.3631 30.3274 51.3391 29.5354 51.2911C28.7434 51.2431 28.2274 51.2071 27.9874 51.1831V59.3551H23.7754ZM32.1634 47.9071C33.5074 47.9071 34.3954 47.7031 34.8274 47.2951C35.1634 46.9591 35.4034 46.3591 35.5474 45.4951C35.6914 44.6311 35.7634 43.4791 35.7634 42.0391C35.7634 40.8631 35.7034 39.9751 35.5834 39.3751C35.4634 38.7751 35.3194 38.3551 35.1514 38.1151C35.0074 37.8511 34.8634 37.6591 34.7194 37.5391C34.5274 37.3951 34.1794 37.2751 33.6754 37.1791C33.1954 37.0591 32.6074 36.9991 31.9114 36.9991C31.1434 36.9991 30.3994 37.0351 29.6794 37.1071C28.9834 37.1791 28.4194 37.2511 27.9874 37.3231V47.5471C28.1794 47.5951 28.6714 47.6671 29.4634 47.7631C30.2794 47.8591 31.1794 47.9071 32.1634 47.9071Z" fill="white"/>
</g>
<defs>
<filter id="filter0_d_500_489" x="0" y="0" width="78.7107" height="78.7109" filterUnits="userSpaceOnUse" color-interpolation-filters="sRGB">
<feFlood flood-opacity="0" result="BackgroundImageFix"/>
<feColorMatrix in="SourceAlpha" type="matrix" values="0 0 0 0 0 0 0 0 0 0 0 0 0 0 0 0 0 0 127 0" result="hardAlpha"/>
<feOffset dy="4"/>
<feGaussianBlur stdDeviation="2"/>
<feComposite in2="hardAlpha" operator="out"/>
<feColorMatrix type="matrix" values="0 0 0 0 0 0 0 0 0 0 0 0 0 0 0 0 0 0 0.25 0"/>
<feBlend mode="normal" in2="BackgroundImageFix" result="effect1_dropShadow_500_489"/>
<feBlend mode="normal" in="SourceGraphic" in2="effect1_dropShadow_500_489" result="shape"/>
</filter>
<filter id="filter1_d_500_489" x="38.7754" y="9.72314" width="24.3799" height="33.6318" filterUnits="userSpaceOnUse" color-interpolation-filters="sRGB">
<feFlood flood-opacity="0" result="BackgroundImageFix"/>
<feColorMatrix in="SourceAlpha" type="matrix" values="0 0 0 0 0 0 0 0 0 0 0 0 0 0 0 0 0 0 127 0" result="hardAlpha"/>
<feOffset dy="4"/>
<feGaussianBlur stdDeviation="2"/>
<feComposite in2="hardAlpha" operator="out"/>
<feColorMatrix type="matrix" values="0 0 0 0 0 0 0 0 0 0 0 0 0 0 0 0 0 0 0.25 0"/>
<feBlend mode="normal" in2="BackgroundImageFix" result="effect1_dropShadow_500_489"/>
<feBlend mode="normal" in="SourceGraphic" in2="effect1_dropShadow_500_489" result="shape"/>
</filter>
<filter id="filter2_d_500_489" x="19.7754" y="33.7231" width="24.3799" height="33.6318" filterUnits="userSpaceOnUse" color-interpolation-filters="sRGB">
<feFlood flood-opacity="0" result="BackgroundImageFix"/>
<feColorMatrix in="SourceAlpha" type="matrix" values="0 0 0 0 0 0 0 0 0 0 0 0 0 0 0 0 0 0 127 0" result="hardAlpha"/>
<feOffset dy="4"/>
<feGaussianBlur stdDeviation="2"/>
<feComposite in2="hardAlpha" operator="out"/>
<feColorMatrix type="matrix" values="0 0 0 0 0 0 0 0 0 0 0 0 0 0 0 0 0 0 0.25 0"/>
<feBlend mode="normal" in2="BackgroundImageFix" result="effect1_dropShadow_500_489"/>
<feBlend mode="normal" in="SourceGraphic" in2="effect1_dropShadow_500_489" result="shape"/>
</filter>
</defs>
</svg>
